<?xml version="1.0" standalone="no"?>
<!DOCTYPE svg PUBLIC "-//W3C//DTD SVG 20010904//EN"
 "http://www.w3.org/TR/2001/REC-SVG-20010904/DTD/svg10.dtd">
<svg version="1.0" xmlns="http://www.w3.org/2000/svg"
 width="600.000000pt" height="600.000000pt" viewBox="0 0 600.000000 600.000000"
 preserveAspectRatio="xMidYMid meet">

<g transform="translate(0.000000,600.000000) scale(0.100000,-0.100000)"
fill="#000000" stroke="none">
<path d="M2837 5255 c-94 -18 -192 -56 -267 -102 -63 -40 -162 -133 -191 -180
l-20 -32 -157 -3 -157 -3 -3 -82 -3 -83 -149 0 -150 0 0 -1190 0 -1190 1260 0
1260 0 0 1190 0 1190 -150 0 -149 0 -3 83 -3 82 -157 3 -157 3 -21 34 c-11 19
-54 65 -95 103 -130 121 -285 180 -495 187 -76 3 -141 0 -193 -10z m352 -141
c145 -37 282 -137 347 -253 l29 -51 127 0 127 0 3 -82 3 -83 153 -3 152 -3 0
-1059 0 -1060 -1130 0 -1130 0 0 1060 0 1060 155 0 155 0 0 85 0 85 128 1 127
0 45 71 c87 136 231 223 412 248 78 11 222 3 297 -16z"/>
<path d="M2496 4319 c-275 -98 -501 -180 -502 -182 -6 -6 39 -117 47 -117 5 0
222 76 484 170 l475 169 474 -169 c261 -94 479 -170 484 -170 9 0 54 111 48
117 -3 3 -1009 364 -1010 362 -1 0 -226 -81 -500 -180z"/>
<path d="M2090 3935 c0 -19 5 -35 10 -35 6 0 10 -10 10 -23 0 -28 17 -47 42
-47 18 0 18 -9 13 -142 -3 -79 -8 -245 -11 -370 l-6 -228 -34 0 -34 0 0 -60 0
-60 920 0 920 0 0 60 0 60 -34 0 -34 0 -6 268 c-3 147 -8 313 -11 370 -5 94
-4 102 13 102 24 0 42 19 42 46 0 12 7 24 15 28 9 3 15 18 15 36 l0 30 -915 0
-915 0 0 -35z m403 -55 c-7 -25 13 -50 39 -50 19 0 19 -7 14 -247 -4 -137 -9
-303 -12 -370 l-6 -123 -103 0 -103 0 -6 153 c-3 83 -8 250 -11 370 -6 210 -6
217 13 217 26 0 46 25 39 50 -5 19 0 20 68 20 68 0 73 -1 68 -20z m382 1 c-6
-21 18 -51 41 -51 17 0 17 -44 7 -462 l-6 -278 -107 0 -108 0 -6 298 c-3 163
-8 329 -10 368 l-4 72 29 6 c24 5 29 10 29 36 l0 30 71 0 c64 0 70 -2 64 -19z
m385 -4 c0 -27 17 -47 42 -47 16 0 17 -10 13 -112 -3 -62 -8 -229 -11 -370
l-6 -258 -104 0 c-99 0 -104 1 -108 23 -3 12 -8 178 -11 370 -6 307 -5 347 8
347 24 0 48 30 42 51 -6 17 0 19 64 19 67 0 71 -1 71 -23z m383 3 c-7 -25 13
-50 38 -50 19 0 19 -8 14 -207 -3 -115 -8 -281 -11 -370 l-6 -163 -103 0 -103
0 -6 113 c-3 61 -8 228 -11 370 -6 250 -6 257 13 257 26 0 46 25 39 50 -5 19
0 20 68 20 68 0 73 -1 68 -20z"/>
<path d="M2010 2845 l0 -35 990 0 990 0 0 35 0 35 -990 0 -990 0 0 -35z"/>
<path d="M1960 2715 l0 -35 1045 0 1045 0 0 35 0 35 -1045 0 -1045 0 0 -35z"/>
<path d="M1636 1759 c-63 -15 -152 -68 -200 -119 -90 -96 -136 -227 -136 -390
0 -262 133 -453 351 -505 171 -40 339 5 448 120 92 97 141 231 141 385 0 257
-129 452 -334 506 -57 15 -210 17 -270 3z m223 -35 c147 -43 241 -230 241
-476 0 -119 -21 -215 -65 -305 -58 -117 -143 -173 -264 -173 -75 0 -122 15
-173 53 -100 76 -148 196 -155 389 -6 135 4 212 38 304 67 177 212 258 378
208z"/>
<path d="M2519 1643 c-10 -2 -22 -27 -32 -62 -19 -70 -57 -118 -100 -129 -47
-12 -45 -30 5 -34 l43 -3 5 -290 c6 -325 8 -338 76 -370 70 -33 224 -14 224
27 0 15 -4 18 -17 13 -10 -4 -38 -10 -63 -12 -35 -4 -51 -1 -70 15 l-25 20 0
299 0 298 83 3 c64 2 82 6 82 17 0 12 -17 15 -85 15 l-85 0 0 100 c0 103 -1
104 -41 93z"/>
<path d="M2979 1643 c-10 -2 -22 -27 -32 -62 -19 -70 -57 -118 -100 -129 -47
-12 -45 -30 5 -34 l43 -3 5 -290 c6 -325 8 -338 76 -370 70 -33 224 -14 224
27 0 15 -4 18 -17 13 -10 -4 -38 -10 -63 -12 -35 -4 -51 -1 -70 15 l-25 20 0
299 0 298 83 3 c64 2 82 6 82 17 0 12 -17 15 -85 15 l-85 0 0 100 c0 103 -1
104 -41 93z"/>
<path d="M3524 1457 c-105 -27 -184 -96 -184 -160 0 -29 24 -47 65 -47 43 0
65 17 65 51 0 82 55 133 146 133 98 1 134 -49 134 -183 l0 -80 -32 -5 c-234
-31 -307 -52 -362 -104 -57 -54 -73 -149 -37 -228 23 -51 64 -80 131 -95 92
-20 181 8 266 84 l33 28 7 -38 c11 -65 20 -73 72 -73 71 0 122 11 122 26 0 7
-14 14 -32 16 -55 5 -58 23 -57 304 2 290 -2 309 -80 353 -52 29 -179 38 -257
18z m224 -419 c-4 -117 -21 -163 -79 -209 -41 -33 -114 -55 -153 -45 -98 25
-127 174 -50 265 30 36 111 68 202 80 37 5 71 9 76 10 4 0 7 -45 4 -101z"/>
<path d="M5300 1463 c-98 -16 -181 -68 -206 -130 -18 -41 -17 -48 2 -67 19
-20 87 -21 103 -2 6 7 15 35 20 62 17 88 103 133 195 102 58 -19 77 -59 84
-168 l5 -88 -49 -7 c-241 -30 -325 -59 -374 -127 -69 -94 -38 -232 64 -285 20
-11 55 -17 101 -17 80 0 132 20 208 77 l47 37 0 -33 c0 -50 24 -77 69 -77 71
0 131 12 131 26 0 9 -11 14 -28 14 -16 0 -37 6 -48 14 -18 14 -19 26 -16 259
4 274 -2 313 -52 363 -45 45 -152 64 -256 47z m198 -372 c5 -70 -16 -182 -43
-222 -28 -44 -113 -89 -166 -89 -69 0 -119 63 -119 151 0 118 82 178 275 202
47 6 50 3 53 -42z"/>
<path d="M348 1453 c-34 -3 -48 -8 -48 -19 0 -9 10 -14 29 -14 56 0 57 -6 64
-278 5 -218 8 -256 25 -294 63 -144 259 -155 386 -23 l45 48 3 -64 c4 -75 2
-74 125 -64 61 5 83 10 83 21 0 9 -11 14 -29 14 -59 0 -61 10 -61 362 l0 318
-44 0 c-88 0 -166 -12 -166 -26 0 -8 11 -14 25 -14 14 0 34 -9 45 -20 19 -19
20 -33 20 -213 0 -141 -4 -207 -15 -243 -37 -126 -171 -200 -262 -144 -57 34
-64 85 -61 394 l3 266 -60 -2 c-33 -1 -81 -3 -107 -5z"/>
<path d="M3950 1435 c0 -8 9 -15 19 -15 11 0 32 -10 46 -22 21 -19 42 -74 115
-318 49 -162 94 -305 100 -318 8 -18 17 -23 42 -20 l31 3 84 250 c45 138 86
257 89 265 4 9 44 -98 94 -250 l87 -265 34 0 34 0 53 165 c30 91 74 229 99
308 48 150 70 185 124 197 16 4 29 13 29 21 0 11 -25 14 -135 14 -113 0 -135
-2 -135 -15 0 -8 9 -15 20 -15 12 0 34 -7 50 -15 24 -12 30 -22 30 -48 0 -29
-123 -463 -134 -474 -4 -4 -59 163 -159 480 -20 65 -22 68 -51 65 -29 -3 -30
-4 -118 -277 -49 -150 -92 -270 -95 -267 -3 3 -36 112 -73 243 -45 156 -65
244 -60 258 4 13 21 23 48 29 23 6 42 16 42 23 0 10 -34 13 -155 13 -131 0
-155 -2 -155 -15z"/>
</g>
</svg>
